{"title":"Selecta Ft. Strezz &amp; Don Dotchy - SKNY Jeans (2010)[720p.x264]AA","uid":6611418,"size":73809875,"categoryP":"video","categoryS":"music_videos","magnet":"?xt=urn:btih:228643a25a1c31d05bc856e24db845bb45f7a87b&amp;dn=Selecta+Ft.+Strezz+%26+Don+Dotchy+-+SKNY+Jeans+%282010%29%5B720p.x264%5DAA&amp;tr=udp%3A%2F%2Ftracker.openbittorrent.com%3A80&amp;tr=udp%3A%2F%2Fopen.demonii.com%3A1337&amp;tr=udp%3A%2F%2Ftracker.coppersurfer.tk%3A6969&amp;tr=udp%3A%2F%2Fexodus.desync.com%3A6969","seeders":0,"leechers":1,"uploader":"sopiebaba","files":1,"time":1313605971,"description":"Here's the official music video \n\n*Selecta Ft. Strezz &amp; Don Dotchy - SKNY Jeans (2010)[720p.x264]AAC*\n\n\n========================================================================\n\nFormat                           : MPEG-4\nFormat profile                   : Base Media / Version 2\nCodec ID                         : mp42\nFile size                        : 70.4 MiB\nDuration                         : 3mn 39s\nOverall bit rate                 : 2 685 Kbps\n\nVideo\nID                               : 1\nFormat                           : AVC\nFormat/Info                      : Advanced Video Codec\nFormat profile                   : &lt;a class=&quot;__cf_email__&quot; href=&quot;/cdn-cgi/l/email-protection&quot; data-cfemail=&quot;8bc3e2ece3cbc7b8a5ba&quot;&gt;[email&amp;#160;protected]&lt;/a&gt;&lt;script cf-hash='f9e31' type=&quot;text/javascript&quot;&gt;\n/* &lt;![CDATA[ */!function(){try{var t=&quot;currentScript&quot;in document?document.currentScript:function(){for(var t=document.getElementsByTagName(&quot;script&quot;),e=t.length;e--;)if(t[e].getAttribute(&quot;cf-hash&quot;))return t[e]}();if(t&amp;&amp;t.previousSibling){var e,r,n,i,c=t.previousSibling,a=c.getAttribute(&quot;data-cfemail&quot;);if(a){for(e=&quot;&quot;,r=parseInt(a.substr(0,2),16),n=2;a.length-n;n+=2)i=parseInt(a.substr(n,2),16)^r,e+=String.fromCharCode(i);e=document.createTextNode(e),c.parentNode.replaceChild(e,c)}}}catch(u){}}();/* ]]&gt; */&lt;/script&gt;\nFormat settings, CABAC           : Yes\nFormat settings, ReFrames        : 1 frame\nCodec ID                         : avc1\nCodec ID/Info                    : Advanced Video Coding\nDuration                         : 3mn 39s\nBit rate mode                    : Variable\nBit rate                         : 2 552 Kbps\nMaximum bit rate                 : 7 164 Kbps\nWidth                            : 1 280 pixels\nHeight                           : 720 pixels\nDisplay aspect ratio             : 16:9\nFrame rate mode                  : Variable\nFrame rate                       : 30.000 fps\nMinimum frame rate               : 29.412 fps\nMaximum frame rate               : 55.556 fps\nColor space                      : YUV\nChroma subsampling               : 4:2:0\nBit depth                        : 8 bits\nScan type                        : Progressive\nBits/(Pixel*Frame)               : 0.092\nStream size                      : 66.9 MiB (95%)\n\n\nAudio\nID                               : 2\nFormat                           : AAC\nFormat/Info                      : Advanced Audio Codec\nFormat version                   : Version 4\nFormat profile                   : LC\nFormat settings, SBR             : No\nCodec ID                         : 40\nDuration                         : 3mn 39s\nBit rate mode                    : Variable\nBit rate                         : 127 Kbps\nMaximum bit rate                 : 220 Kbps\nChannel(s)                       : 2 channels\nChannel positions                : Front: L R\nSampling rate                    : 44.1 KHz\nStream size                      : 3.32 MiB (5%)\n\n========================================================================\n\nEnjoy......Fuckers.\n\t\t\n","torrent":{"xt":"urn:btih:228643a25a1c31d05bc856e24db845bb45f7a87b","amp;dn":"Selecta+Ft.+Strezz+%26+Don+Dotchy+-+SKNY+Jeans+%282010%29%5B720p.x264%5DAA","amp;tr":["udp%3A%2F%2Ftracker.openbittorrent.com%3A80","udp%3A%2F%2Fopen.demonii.com%3A1337","udp%3A%2F%2Ftracker.coppersurfer.tk%3A6969","udp%3A%2F%2Fexodus.desync.com%3A6969"],"infoHash":"228643a25a1c31d05bc856e24db845bb45f7a87b","infoHashBuffer":{"type":"Buffer","data":[34,134,67,162,90,28,49,208,91,200,86,226,77,184,69,187,69,247,168,123]},"announce":[],"urlList":[]}}